<svg xmlns="http://www.w3.org/2000/svg" viewBox="0 0 400 300" fill="none">
  <rect width="400" height="300" fill="#0D1225"/>
  <rect x="30" y="25" width="100" height="12" rx="3" fill="#242B50"/>
  <rect x="30" y="45" width="100" height="40" rx="6" fill="#1A2040"/>
  <rect x="140" y="25" width="100" height="12" rx="3" fill="#242B50"/>
  <rect x="140" y="45" width="100" height="40" rx="6" fill="#1A2040"/>
  <rect x="250" y="25" width="120" height="12" rx="3" fill="#242B50"/>
  <rect x="250" y="45" width="120" height="40" rx="6" fill="#1A2040"/>
  <rect x="30" y="105" width="340" height="8" rx="3" fill="#1A2040"/>
  <rect x="30" y="120" width="340" height="6" rx="3" fill="#151B34"/>
  <rect x="30" y="135" width="300" height="6" rx="3" fill="#151B34"/>
  <rect x="30" y="155" width="160" height="30" rx="6" fill="#1E2D5A"/>
  <rect x="200" y="155" width="170" height="30" rx="6" fill="#1E2D5A"/>
  <rect x="30" y="200" width="340" height="70" rx="8" fill="#1A2040"/>
  <text x="200" y="285" text-anchor="middle" fill="#4A5580" font-size="11" font-family="sans-serif">数据处理流水线</text>
</svg>
