<svg xmlns="http://www.w3.org/2000/svg" viewBox="0 0 400 300" fill="none">
  <rect width="400" height="300" fill="#0D1225"/>
  <rect x="40" y="30" width="320" height="20" rx="4" fill="#151B34"/>
  <rect x="40" y="60" width="320" height="120" rx="8" fill="#1A2040"/>
  <rect x="60" y="75" width="280" height="12" rx="3" fill="#242B50"/>
  <rect x="60" y="95" width="210" height="12" rx="3" fill="#242B50"/>
  <rect x="60" y="120" width="140" height="8" rx="3" fill="#1E2D5A"/>
  <rect x="60" y="135" width="260" height="8" rx="3" fill="#1E2D5A"/>
  <rect x="60" y="150" width="180" height="8" rx="3" fill="#1E2D5A"/>
  <rect x="40" y="200" width="150" height="12" rx="3" fill="#1A2040"/>
  <circle cx="45" cy="230" r="3" fill="#6EA8FE"/>
  <rect x="55" y="226" width="280" height="8" rx="3" fill="#1A2040"/>
  <circle cx="45" cy="250" r="3" fill="#8B7CFF"/>
  <rect x="55" y="246" width="230" height="8" rx="3" fill="#1A2040"/>
  <text x="200" y="285" text-anchor="middle" fill="#4A5580" font-size="11" font-family="sans-serif">训练监控看板</text>
</svg>
