<svg xmlns="http://www.w3.org/2000/svg" viewBox="0 0 400 300" fill="none">
  <rect width="400" height="300" fill="#0D1225"/>
  <rect x="20" y="15" width="360" height="12" rx="3" fill="#1A2040"/>
  <rect x="20" y="38" width="200" height="8" rx="2" fill="#151B34"/>
  <rect x="20" y="58" width="360" height="20" rx="4" fill="#1E2D5A"/>
  <rect x="32" y="64" width="60" height="8" rx="2" fill="#6EA8FE" opacity="0.4"/>
  <rect x="20" y="92" width="360" height="48" rx="5" fill="#151B34"/>
  <rect x="36" y="104" width="50" height="24" rx="3" fill="#1E2D5A"/>
  <rect x="96" y="104" width="130" height="8" rx="2" fill="#242B50"/>
  <rect x="96" y="120" width="180" height="8" rx="2" fill="#242B50"/>
  <rect x="20" y="154" width="360" height="48" rx="5" fill="#151B34"/>
  <rect x="36" y="166" width="50" height="24" rx="3" fill="#1E2D5A"/>
  <rect x="96" y="166" width="110" height="8" rx="2" fill="#242B50"/>
  <rect x="96" y="182" width="160" height="8" rx="2" fill="#242B50"/>
  <rect x="20" y="216" width="360" height="64" rx="6" fill="#1E2D5A"/>
  <rect x="40" y="234" width="140" height="12" rx="2" fill="#6EA8FE" opacity="0.3"/>
  <rect x="40" y="254" width="200" height="6" rx="2" fill="#242B50"/>
  <text x="200" y="298" text-anchor="middle" fill="#4A5580" font-size="11" font-family="sans-serif">评测报告 02</text>
</svg>
